<svg width="1264" height="173" viewBox="0 0 1264 173" fill="none" xmlns="http://www.w3.org/2000/svg">
<path d="M203.6 124.45C203.6 130.9 208.7 136 215.15 136H244.55C277.55 136 300.35 113.05 300.35 83.5V83.2C300.35 53.65 277.55 31 244.55 31H215.15C208.7 31 203.6 36.1 203.6 42.55V124.45ZM226.7 115.15V51.85H244.55C263.45 51.85 276.2 64.9 276.2 83.5V83.8C276.2 102.4 263.45 115.15 244.55 115.15H226.7Z" fill="black"/>
<path d="M333.984 89.5001C335.784 79.1501 341.934 72.4001 351.384 72.4001C360.984 72.4001 366.984 79.3001 368.334 89.5001H333.984ZM381.534 128.05C383.184 126.55 384.534 124.3 384.534 121.3C384.534 116.2 380.784 112.3 375.684 112.3C373.284 112.3 371.784 112.9 370.134 114.1C365.484 117.55 360.234 119.5 353.934 119.5C343.734 119.5 336.534 114.1 334.284 103.75H379.434C385.434 103.75 390.084 99.4001 390.084 92.8001C390.084 76.1501 378.234 54.1001 351.384 54.1001C327.984 54.1001 311.634 73.0001 311.634 95.9501V96.2501C311.634 120.85 329.484 137.8 353.634 137.8C365.334 137.8 374.484 134.05 381.534 128.05Z" fill="black"/>
<path d="M432.726 137.5C450.126 137.5 463.476 129.4 463.476 111.55V111.25C463.476 96.5499 450.426 91.1499 439.176 87.3999C430.476 84.3999 422.826 82.2999 422.826 77.7999V77.4999C422.826 74.3499 425.676 71.9499 431.226 71.9499C436.026 71.9499 442.176 73.8999 448.626 77.0499C450.126 77.7999 451.176 78.0999 452.826 78.0999C457.926 78.0999 461.976 74.1999 461.976 69.0999C461.976 65.1999 459.876 62.1999 456.576 60.5499C448.776 56.6499 440.076 54.3999 431.676 54.3999C415.476 54.3999 402.276 63.5499 402.276 79.8999V80.1999C402.276 95.7999 415.026 101.05 426.276 104.35C435.126 107.05 442.926 108.7 442.926 113.65V113.95C442.926 117.55 439.926 119.95 433.326 119.95C426.876 119.95 419.226 117.55 411.576 112.75C410.376 112 408.726 111.55 407.076 111.55C401.976 111.55 398.076 115.45 398.076 120.55C398.076 124.15 400.026 126.85 402.426 128.35C412.176 134.65 422.826 137.5 432.726 137.5Z" fill="black"/>
<path d="M476.519 36.7C476.519 43.3 482.069 47.5 489.269 47.5C496.469 47.5 502.019 43.3 502.019 36.7V36.4C502.019 29.8 496.469 25.75 489.269 25.75C482.069 25.75 476.519 29.8 476.519 36.4V36.7ZM477.869 125.5C477.869 131.8 482.969 136.9 489.269 136.9C495.569 136.9 500.669 131.8 500.669 125.5V66.1C500.669 59.8 495.569 54.7 489.269 54.7C482.969 54.7 477.869 59.8 477.869 66.1V125.5Z" fill="black"/>
<path d="M555.083 160.3C570.683 160.3 582.233 157 589.733 149.5C596.483 142.75 599.933 132.25 599.933 117.85V66.1001C599.933 59.8001 594.833 54.7001 588.533 54.7001C582.233 54.7001 577.133 59.8001 577.133 65.9501V66.1001C570.983 59.3501 563.633 54.1001 551.183 54.1001C532.733 54.1001 515.483 67.6001 515.483 91.6001V91.9001C515.483 115.75 532.433 129.4 551.183 129.4C563.333 129.4 570.683 124.45 577.433 116.35V120.25C577.433 134.65 570.083 142.15 554.483 142.15C545.933 142.15 538.883 140.35 532.283 137.35C531.233 136.9 530.033 136.6 528.533 136.6C523.433 136.6 519.233 140.8 519.233 145.9C519.233 150.1 521.783 153.25 525.683 154.75C535.133 158.5 544.433 160.3 555.083 160.3ZM557.783 110.5C546.683 110.5 538.283 103 538.283 91.9001V91.6001C538.283 80.6501 546.683 73.0001 557.783 73.0001C568.883 73.0001 577.433 80.6501 577.433 91.6001V91.9001C577.433 102.85 568.883 110.5 557.783 110.5Z" fill="black"/>
<path d="M617.304 125.5C617.304 131.8 622.404 136.9 628.704 136.9C635.004 136.9 640.104 131.8 640.104 125.5V91.1501C640.104 80.3501 645.654 74.8001 654.354 74.8001C663.054 74.8001 668.154 80.3501 668.154 91.1501V125.5C668.154 131.8 673.254 136.9 679.554 136.9C685.854 136.9 690.954 131.8 690.954 125.5V83.9501C690.954 65.5001 680.904 54.1001 663.654 54.1001C652.104 54.1001 645.354 60.2501 640.104 67.0001V66.1001C640.104 59.8001 635.004 54.7001 628.704 54.7001C622.404 54.7001 617.304 59.8001 617.304 66.1001V125.5Z" fill="black"/>
<path d="M789.481 137.5C812.131 137.5 828.031 125.8 828.031 104.95V104.65C828.031 86.35 816.031 78.7 794.731 73.15C776.581 68.5 772.081 66.25 772.081 59.35V59.05C772.081 53.95 776.731 49.9 785.581 49.9C792.781 49.9 799.981 52.45 807.631 56.95C809.431 58 811.231 58.6 813.481 58.6C819.481 58.6 824.281 53.95 824.281 47.95C824.281 43.45 821.731 40.3 819.181 38.8C809.731 32.8 798.631 29.5 785.881 29.5C764.431 29.5 749.131 42.1 749.131 61.15V61.45C749.131 82.3 762.781 88.15 783.931 93.55C801.481 98.05 805.081 101.05 805.081 106.9V107.2C805.081 113.35 799.381 117.1 789.931 117.1C779.731 117.1 771.031 113.5 763.081 107.65C761.581 106.6 759.481 105.55 756.481 105.55C750.481 105.55 745.681 110.2 745.681 116.2C745.681 119.8 747.481 123.1 750.031 124.9C761.731 133.3 775.681 137.5 789.481 137.5Z" fill="black"/>
<path d="M857.131 160.45C870.78 160.45 877.53 154.3 884.28 137.95L912.33 70.6C912.78 69.55 913.38 67 913.38 65.2C913.38 59.2 908.43 54.7 902.58 54.7C896.73 54.7 893.43 58.6 891.63 63.4L874.83 110.05L857.431 63.25C855.481 57.85 852.181 54.7 846.481 54.7C840.181 54.7 835.231 59.2 835.231 65.65C835.231 67.15 835.831 69.4 836.431 70.9L863.881 134.5L863.131 136.3C861.031 140.35 859.081 141.1 855.031 141.1C853.381 141.1 852.181 140.8 850.231 140.2C849.331 139.9 848.281 139.6 846.481 139.6C841.831 139.6 837.481 143.35 837.481 148.9C837.481 154.45 841.381 157.15 844.681 158.35C848.431 159.7 852.031 160.45 857.131 160.45Z" fill="black"/>
<path d="M952.11 137.5C969.51 137.5 982.86 129.4 982.86 111.55V111.25C982.86 96.5499 969.81 91.1499 958.56 87.3999C949.86 84.3999 942.21 82.2999 942.21 77.7999V77.4999C942.21 74.3499 945.06 71.9499 950.61 71.9499C955.41 71.9499 961.56 73.8999 968.01 77.0499C969.51 77.7999 970.56 78.0999 972.21 78.0999C977.31 78.0999 981.36 74.1999 981.36 69.0999C981.36 65.1999 979.26 62.1999 975.96 60.5499C968.16 56.6499 959.46 54.3999 951.06 54.3999C934.86 54.3999 921.66 63.5499 921.66 79.8999V80.1999C921.66 95.7999 934.41 101.05 945.66 104.35C954.51 107.05 962.31 108.7 962.31 113.65V113.95C962.31 117.55 959.31 119.95 952.71 119.95C946.26 119.95 938.61 117.55 930.96 112.75C929.76 112 928.11 111.55 926.46 111.55C921.36 111.55 917.46 115.45 917.46 120.55C917.46 124.15 919.41 126.85 921.81 128.35C931.56 134.65 942.21 137.5 952.11 137.5Z" fill="black"/>
<path d="M1021.89 137.35C1026.84 137.35 1030.74 136.75 1034.94 135.1C1038.09 133.9 1040.79 130.6 1040.79 126.55C1040.79 121.3 1036.44 117.1 1031.34 117.1C1030.89 117.1 1029.39 117.25 1028.64 117.25C1023.54 117.25 1021.29 114.7 1021.29 109.45V75.0999H1031.34C1036.74 75.0999 1041.09 70.7499 1041.09 65.3499C1041.09 59.9499 1036.74 55.5999 1031.34 55.5999H1021.29V45.5499C1021.29 39.2499 1016.19 34.1499 1009.89 34.1499C1003.59 34.1499 998.49 39.2499 998.49 45.5499V55.5999H997.74C992.34 55.5999 987.99 59.9499 987.99 65.3499C987.99 70.7499 992.34 75.0999 997.74 75.0999H998.49V113.2C998.49 131.8 1007.94 137.35 1021.89 137.35Z" fill="black"/>
<path d="M1070.24 89.5001C1072.04 79.1501 1078.19 72.4001 1087.64 72.4001C1097.24 72.4001 1103.24 79.3001 1104.59 89.5001H1070.24ZM1117.79 128.05C1119.44 126.55 1120.79 124.3 1120.79 121.3C1120.79 116.2 1117.04 112.3 1111.94 112.3C1109.54 112.3 1108.04 112.9 1106.39 114.1C1101.74 117.55 1096.49 119.5 1090.19 119.5C1079.99 119.5 1072.79 114.1 1070.54 103.75H1115.69C1121.69 103.75 1126.34 99.4001 1126.34 92.8001C1126.34 76.1501 1114.49 54.1001 1087.64 54.1001C1064.24 54.1001 1047.89 73.0001 1047.89 95.9501V96.2501C1047.89 120.85 1065.74 137.8 1089.89 137.8C1101.59 137.8 1110.74 134.05 1117.79 128.05Z" fill="black"/>
<path d="M1140.79 125.5C1140.79 131.8 1145.89 136.9 1152.19 136.9C1158.49 136.9 1163.59 131.8 1163.59 125.5V91.1501C1163.59 80.3501 1168.84 74.8001 1177.39 74.8001C1185.94 74.8001 1190.74 80.3501 1190.74 91.1501V125.5C1190.74 131.8 1195.84 136.9 1202.14 136.9C1208.44 136.9 1213.54 131.8 1213.54 125.5V91.1501C1213.54 80.3501 1218.79 74.8001 1227.34 74.8001C1235.89 74.8001 1240.69 80.3501 1240.69 91.1501V125.5C1240.69 131.8 1245.79 136.9 1252.09 136.9C1258.39 136.9 1263.49 131.8 1263.49 125.5V83.6501C1263.49 64.3001 1253.29 54.1001 1236.34 54.1001C1225.39 54.1001 1216.99 58.6001 1209.94 66.8501C1205.74 58.7501 1197.79 54.1001 1187.29 54.1001C1175.74 54.1001 1168.84 60.2501 1163.59 67.0001V66.1001C1163.59 59.8001 1158.49 54.7001 1152.19 54.7001C1145.89 54.7001 1140.79 59.8001 1140.79 66.1001V125.5Z" fill="black"/>
<path d="M74.5 74.143V173L149 135.929V37.0715L74.5 74.143Z" fill="#820F0F"/>
<path d="M0 37.0715V135.929L74.5 173V74.143L0 37.0715Z" fill="#B40808"/>
<path d="M74.5 0L0 37.0714L74.5 74.1429L149 37.0714L74.5 0Z" fill="#E60000"/>
</svg>
